<?xml version="1.0" encoding="utf-8"?>
<!-- Generator: Adobe Illustrator 19.0.0, SVG Export Plug-In . SVG Version: 6.00 Build 0)  -->
<svg version="1.1" id="Layer_1" xmlns="http://www.w3.org/2000/svg" xmlns:xlink="http://www.w3.org/1999/xlink" x="0px" y="0px"
	 viewBox="-38 95.5 714.2 422.5" style="enable-background:new -38 95.5 714.2 422.5;" xml:space="preserve">
<style type="text/css">
	.st0{fill:#FFFFFF;}
</style>
<title>Artboard 6</title>
<path class="st0" d="M39.6,154.2l65,152.4l52-76.3l39,25.4L130,366.3l64.8,151.4l-38.1,0.1l-51.3-109.9L39.6,517.9L-38,518
	L77.1,347.8l-114-243.3L39.6,154.2z"/>
<path class="st0" d="M239.5,408.5v35.4l-43.6-8.9v-39.6L239.5,408.5z"/>
<path class="st0" d="M311.9,331.4v28.2l-28.8-15.9v173.8H264V333.1L223.8,311v-36.9L311.9,331.4z"/>
<path class="st0" d="M349.1,355.6c6.5,4.4,13,7.8,17,26c1.7,8,2.5,16.2,2.5,24.5c0,5.1-0.1,19-4.5,26.5c-0.9,1.8-2.2,3.3-3.7,4.6
	c1.1,1.1,2,2.4,2.8,3.8c4.1,6.9,4.9,17.5,4.9,29.5c0,10.6-0.3,20.7-0.3,31.1c0,9.5,0.7,12.3,1.9,15.9h-10.7c-1-4.6-1.4-7.3-1.4-17.1
	c0-9.5,0.2-18.8,0.2-28.3c0-10.6-0.4-15.8-2-19.8c-1.2-2.8-2.6-3.6-4.1-4.1l-22.2-6.2v75.5h-13.7V333.8L349.1,355.6z M329.3,414.8
	l19.3,7.4c1.4,0.6,2.9,0.7,4.3,0.3c1.7-0.7,5.2-3.7,5.2-17.4c0-8.6-1.6-13.9-2.6-16.4c-1.3-3.8-3.8-6.9-7.3-8.9l-19-10.5
	L329.3,414.8z"/>
<path class="st0" d="M399.1,388.1l15.6,129.2h-7.2l-3.1-26.9l-19.7-2.7l-3.9,29.7h-10.1l19.8-134.9L399.1,388.1z M387.2,467.5
	l15,3.5l-7.4-61.4L387.2,467.5z"/>
<path class="st0" d="M598.6,459.3l-65-152.4l-52,76.3l-39-25.4l65.6-110.5L443.5,95.8l38.1-0.1l51.3,109.9l65.7-110.1l77.6-0.1
	L561.1,265.8l114,243.3L598.6,459.3z"/>
<path class="st0" d="M398.8,205v-35.4l43.6,8.9v39.7L398.8,205z"/>
<path class="st0" d="M326.4,282.1v-28.2l28.8,15.9V96h19.1v184.4l40.2,22.1v36.9L326.4,282.1z"/>
<path class="st0" d="M289.2,257.9c-6.5-4.4-13-7.8-17-26c-1.7-8-2.5-16.2-2.4-24.4c0-5.1,0.1-19,4.5-26.5c0.9-1.8,2.2-3.3,3.7-4.6
	c-1.1-1.1-2-2.4-2.8-3.8c-4.1-6.9-4.9-17.5-4.9-29.6c0-10.6,0.3-20.7,0.3-31.1c0-9.5-0.7-12.3-1.9-15.9h10.7c1,4.6,1.4,7.3,1.4,17.1
	c0,9.5-0.2,18.8-0.2,28.3c0,10.6,0.4,15.8,2,19.8c1.2,2.8,2.6,3.7,4.1,4.1l22.2,6.2V96h13.7v183.7L289.2,257.9z M308.9,198.7
	l-19.3-7.4c-1.4-0.6-2.9-0.7-4.3-0.3c-1.7,0.7-5.2,3.7-5.2,17.4c0,8.6,1.6,13.8,2.6,16.4c1.3,3.8,3.8,6.9,7.3,8.9l19,10.5
	L308.9,198.7z"/>
<path class="st0" d="M239.1,225.4L223.6,96.2h7.2l3.1,26.9l19.7,2.7l3.9-29.7h10.1L247.7,231L239.1,225.4z M251,146l-15-3.5
	l7.4,61.4L251,146z"/>
</svg>
